<?xml version="1.0" standalone="no"?>
<!DOCTYPE svg PUBLIC "-//W3C//DTD SVG 20010904//EN"
 "http://www.w3.org/TR/2001/REC-SVG-20010904/DTD/svg10.dtd">
<svg version="1.0" xmlns="http://www.w3.org/2000/svg"
 width="469.000000pt" height="469.000000pt" viewBox="0 0 469.000000 469.000000"
 preserveAspectRatio="xMidYMid meet">

<g transform="translate(0.000000,469.000000) scale(0.100000,-0.100000)"
fill="#000000" stroke="none">
<path d="M2260 4607 c-41 -24 -160 -93 -265 -154 -104 -60 -392 -227 -640
-370 -645 -374 -727 -422 -753 -442 -24 -17 -23 -18 309 -210 294 -170 336
-191 356 -182 22 10 431 250 898 526 192 114 200 117 225 103 14 -8 144 -84
290 -170 404 -236 514 -298 528 -298 10 0 204 112 610 353 18 11 31 24 30 29
-5 13 -1479 857 -1498 858 -9 0 -49 -19 -90 -43z"/>
<path d="M2285 3465 c-11 -7 -171 -99 -355 -205 -184 -107 -352 -205 -372
-218 l-38 -25 0 -661 0 -662 133 -76 c72 -42 248 -144 390 -227 142 -83 263
-151 268 -151 11 0 13 2227 2 2233 -5 3 -17 -1 -28 -8z"/>
<path d="M4015 3436 c-55 -25 -121 -91 -131 -131 l-6 -25 -250 0 -249 0 -176
-177 -177 -177 -245 -1 -246 0 0 -85 0 -85 282 0 283 0 177 178 178 177 212 0
211 0 6 -23 c3 -12 21 -41 41 -64 117 -137 339 -110 422 50 22 42 27 65 27
122 0 87 -22 133 -94 198 -80 72 -172 87 -265 43z m176 -165 c23 -24 29 -38
29 -74 0 -93 -99 -140 -169 -81 -27 22 -31 32 -31 76 0 41 5 54 29 79 23 23
38 29 71 29 33 0 48 -6 71 -29z"/>
<path d="M390 2376 c0 -592 3 -1076 6 -1076 3 0 96 53 207 118 111 65 268 157
349 203 l147 84 1 670 0 671 -67 39 c-38 22 -84 48 -103 58 -19 11 -107 61
-195 112 -88 51 -178 103 -200 115 -22 12 -64 35 -92 52 l-53 29 0 -1075z"/>
<path d="M3999 2602 c-39 -20 -63 -42 -89 -80 l-34 -52 -523 0 -523 0 0 -85 0
-85 524 0 524 0 7 -29 c8 -39 69 -107 119 -134 58 -30 174 -31 232 0 59 31
110 93 128 154 20 66 20 92 0 159 -20 67 -101 153 -160 169 -72 20 -146 14
-205 -17z m187 -156 c88 -88 -5 -217 -119 -165 -32 15 -51 51 -50 97 1 28 9
44 37 69 48 45 87 44 132 -1z"/>
<path d="M2537 1943 c-4 -3 -7 -42 -7 -85 l0 -78 268 0 267 0 155 -155 155
-155 251 0 252 0 6 -25 c9 -36 72 -102 120 -128 58 -31 174 -30 232 0 128 68
179 238 109 359 -55 94 -134 137 -241 132 -93 -4 -156 -41 -199 -115 l-30 -52
-215 -1 -215 0 -155 155 -155 155 -296 0 c-162 0 -299 -3 -302 -7z m1633 -300
c36 -21 54 -55 53 -99 -1 -41 -25 -71 -70 -90 -28 -12 -38 -12 -70 1 -47 19
-64 44 -65 96 0 29 6 47 23 66 42 45 84 53 129 26z"/>
<path d="M1025 1394 c-280 -160 -424 -245 -430 -253 -4 -7 130 -86 710 -421
149 -86 428 -248 620 -359 193 -112 369 -214 392 -227 l41 -24 134 79 c73 43
239 140 368 216 228 134 613 362 813 481 53 32 97 60 97 63 0 4 -44 31 -98 61
-53 30 -188 107 -299 172 -112 65 -219 126 -238 135 l-34 16 -268 -153 c-147
-85 -315 -182 -373 -216 l-105 -62 -65 35 c-36 20 -189 107 -340 193 -614 351
-683 390 -694 390 -6 0 -110 -57 -231 -126z"/>
</g>
</svg>
